<?xml version="1.0" encoding="UTF-8" standalone="no"?>
<!-- Created with Inkscape (http://www.inkscape.org/) -->

<svg
   xmlns:dc="http://purl.org/dc/elements/1.1/"
   xmlns:cc="http://creativecommons.org/ns#"
   xmlns:rdf="http://www.w3.org/1999/02/22-rdf-syntax-ns#"
   xmlns:svg="http://www.w3.org/2000/svg"
   xmlns="http://www.w3.org/2000/svg"
   xmlns:sodipodi="http://sodipodi.sourceforge.net/DTD/sodipodi-0.dtd"
   xmlns:inkscape="http://www.inkscape.org/namespaces/inkscape"
   width="2470.76"
   height="520"
   id="svg3800"
   version="1.1"
   inkscape:version="0.48.4 r9939"
   sodipodi:docname="Neues Dokument 5">
  <defs
     id="defs3802" />
  <sodipodi:namedview
     id="base"
     pagecolor="#ffffff"
     bordercolor="#666666"
     borderopacity="1.0"
     inkscape:pageopacity="0.0"
     inkscape:pageshadow="2"
     inkscape:zoom="0.63245634"
     inkscape:cx="1235.38"
     inkscape:cy="260"
     inkscape:document-units="px"
     inkscape:current-layer="layer1"
     showgrid="false"
     fit-margin-top="0"
     fit-margin-left="0"
     fit-margin-right="0"
     fit-margin-bottom="0"
     inkscape:window-width="1680"
     inkscape:window-height="990"
     inkscape:window-x="-4"
     inkscape:window-y="-4"
     inkscape:window-maximized="1" />
  <metadata
     id="metadata3805">
    <rdf:RDF>
      <cc:Work
         rdf:about="">
        <dc:format>image/svg+xml</dc:format>
        <dc:type
           rdf:resource="http://purl.org/dc/dcmitype/StillImage" />
        <dc:title></dc:title>
      </cc:Work>
    </rdf:RDF>
  </metadata>
  <g
     inkscape:label="Ebene 1"
     inkscape:groupmode="layer"
     id="layer1"
     transform="translate(-201.85589,56.415669)">
    <g
       id="g260"
       transform="matrix(37.358039,0,0,-37.358039,332.63339,89.829103)">
      <path
         inkscape:connector-curvature="0"
         d="m 0,0 0,-2.976 c 2.441,0.003 7.179,0.01 8.895,0.01 1.797,0 2.124,0.798 2.124,1.49 0,0.675 -0.323,1.477 -2.124,1.477 L 0,0 z m 0,-6.007 0,-2.079 -3.233,0 0,11.045 c 0,0 10.433,-0.006 12.128,-0.006 3.172,-0.013 5.124,-1.862 5.124,-4.467 0,-2.615 -1.948,-4.49 -5.124,-4.49 -1.716,0 -6.456,10e-4 -8.895,-0.003"
         style="fill:#181513;fill-opacity:1;fill-rule:nonzero;stroke:none"
         id="path262" />
    </g>
    <g
       id="g264"
       transform="matrix(37.358039,0,0,-37.358039,1255.3769,282.223)">
      <path
         inkscape:connector-curvature="0"
         d="M 0,0 -2.799,3.658 -5.587,0 0,0 z m 3.521,-4.587 -1.263,1.647 -10.087,0 -1.254,-1.644 -2.512,1.653 8.79,11.529 8.844,-11.543"
         style="fill:#181513;fill-opacity:1;fill-rule:nonzero;stroke:none"
         id="path266" />
    </g>
    <g
       id="g268"
       transform="matrix(37.358039,0,0,-37.358039,2267.7798,134.28517)">
      <path
         inkscape:connector-curvature="0"
         d="m 0,0 9.159,0 0,-2.738 -9.159,0 0,-1.281 10.569,0 0,-2.884 -13.801,0 0,11.069 13.784,10e-4 0,-2.885 -10.552,0"
         style="fill:#181513;fill-opacity:1;fill-rule:nonzero;stroke:none"
         id="path270" />
    </g>
    <g
       id="g272"
       transform="matrix(37.358039,0,0,-37.358039,1908.0219,80.863173)">
      <path
         inkscape:connector-curvature="0"
         d="m 0,0 c -0.817,0.257 -1.736,0.407 -2.724,0.407 -3.826,0 -5.588,-2.005 -5.588,-3.329 0,-1.338 1.765,-3.341 5.588,-3.341 1.581,0 2.963,0.383 3.977,0.958 l 0,3.797 3,0.002 0,-5.346 c -2.171,-1.654 -4.207,-2.411 -6.977,-2.411 -4.245,0 -8.802,2.336 -8.802,6.341 0,3.995 4.56,6.329 8.802,6.329 1.289,0 2.512,-0.195 3.625,-0.546"
         style="fill:#181513;fill-opacity:1;fill-rule:nonzero;stroke:none"
         id="path274" />
    </g>
  </g>
</svg>
